<svg xmlns="http://www.w3.org/2000/svg" viewBox="0 0 300 200">
  <defs>
    <linearGradient id="wawasanGrad" x1="0%" y1="0%" x2="100%" y2="100%">
      <stop offset="0%" style="stop-color:#059669;stop-opacity:1" />
      <stop offset="100%" style="stop-color:#10B981;stop-opacity:1" />
    </linearGradient>
  </defs>
  
  <!-- Background -->
  <rect width="300" height="200" fill="url(#wawasanGrad)"/>
  
  <!-- Indonesian Map Silhouette -->
  <g transform="translate(80, 60)">
    <path d="M20,40 Q30,35 40,40 L60,35 Q80,30 100,35 L120,40 Q130,45 125,55 L120,65 Q110,70 100,65 L80,70 Q60,75 40,70 L20,65 Q10,55 15,45 Z" fill="white" opacity="0.9"/>
    <circle cx="70" cy="50" r="3" fill="#F59E0B"/>
  </g>
  
  <!-- Pancasila Symbol -->
  <g transform="translate(50, 100)">
    <polygon points="25,10 30,20 40,20 32,28 35,38 25,32 15,38 18,28 10,20 20,20" fill="#F59E0B"/>
  </g>
  
  <!-- Garuda Wings -->
  <g transform="translate(200, 100)">
    <path d="M0,15 Q10,5 20,15 Q15,25 0,15" fill="white" opacity="0.8"/>
    <path d="M20,15 Q30,5 40,15 Q35,25 20,15" fill="white" opacity="0.8"/>
  </g>
  
  <!-- Text -->
  <text x="150" y="190" text-anchor="middle" fill="white" font-size="16" font-weight="bold">Wawasan Kebangsaan</text>
</svg>